<?xml version="1.0" encoding="UTF-8"?>
<svg id="Layer_1" data-name="Layer 1" xmlns="http://www.w3.org/2000/svg" viewBox="0 0 841.89 595.28">
  <defs>
    <style>
      .cls-1 {
        fill: #fff;
      }

      .cls-2 {
        fill: #c69c60;
      }
    </style>
  </defs>
  <g>
    <path class="cls-2" d="m42.32,403.82c-2.44,0-5.04-.42-7.66-1.51-3.02-1.26-7.22-3.88-10.08-9.16-5.01-9.25-2.4-18.71-1.04-22.35l51.18-141.83c.56-1.34,5.71-13.14,14.06-13.33,5.28-.13,9.95,4.2,14.2,13.22l.13.34,47.12,150.61.74,2.15c2.58,7.56,3.12,9.13,7.69,12.03,8.68,5.5,17.91,2.61,19.67,1.98,2.57-.93,6.86-2.48,9.49-7,2.74-4.72,1.91-9.67,1.42-11.57l-43.65-155.38c-.02-.06-.03-.11-.05-.17-1.12-3.2-2.09-5.66-3.91-9.33-2.7-5.43-8.44-14.74-16.55-16.17-7.01-1.24-15.37,3.61-20.97,11.95-.79,1.18-2.34,1.57-3.57.86h0c-1.33-.76-1.77-2.5-.92-3.77,6.83-10.24,17.15-15.93,26.38-14.3,9.89,1.74,16.56,11.32,20.41,19.05,1.97,3.96,3.04,6.71,4.23,10.11l.05.16,43.72,155.6c.67,2.61,1.77,9.22-1.96,15.64-3.6,6.21-9.48,8.33-12.3,9.35-2.18.79-13.56,4.35-24.35-2.49-6.17-3.91-7.26-7.1-9.89-14.82l-.75-2.2-47.03-150.32c-.04-.13-.09-.26-.15-.38-3.07-6.39-6.29-9.86-9.08-9.8-3.84.09-7.85,6.73-9.22,9.99l-51.12,141.67c-.87,2.33-3.36,10.43.72,17.96,1.7,3.14,4.2,5.42,7.44,6.77,7.95,3.32,16.17-1.99,16.52-2.22,6.53-4.29,9.09-10.72,9.72-12.59l26.22-77.83c.47-1.4,1.99-2.15,3.39-1.68h0c1.4.47,2.15,1.99,1.68,3.39l-26.22,77.83c-.77,2.28-3.89,10.12-11.85,15.35-.83.55-6.65,4.19-13.86,4.19Z"/>
    <path class="cls-2" d="m111.32,352.2h-34.26v-6.24h34.26c1.72,0,3.12,1.4,3.12,3.12h0c0,1.72-1.4,3.12-3.12,3.12Z"/>
  </g>
  <g>
    <path class="cls-1" d="m241.95,295.02c-1.72,0-3.04-.74-3.96-2.21s-1.01-3.04-.28-4.7l25.87-61.79c.92-2.15,2.42-3.22,4.51-3.22,2.21,0,3.71,1.07,4.51,3.22l25.97,61.97c.67,1.72.57,3.27-.32,4.65-.89,1.38-2.23,2.07-4.01,2.07-.92,0-1.8-.26-2.62-.78-.83-.52-1.43-1.24-1.8-2.16l-22.84-56.72h2.58l-23.2,56.72c-.43.98-1.06,1.72-1.89,2.21-.83.49-1.67.74-2.53.74Zm4.88-15.84l3.68-7.92h36.09l3.68,7.92h-43.46Z"/>
    <path class="cls-1" d="m336.79,295.39c-4.79,0-9.09-1.12-12.89-3.36-3.81-2.24-6.81-5.29-9.02-9.16-2.21-3.87-3.35-8.23-3.41-13.08v-41.99c0-1.41.44-2.55,1.33-3.41.89-.86,2.01-1.29,3.36-1.29s2.55.43,3.41,1.29c.86.86,1.29,2,1.29,3.41v24.86c2.15-2.58,4.74-4.62,7.78-6.12,3.04-1.5,6.37-2.26,9.99-2.26,4.48,0,8.5,1.12,12.06,3.36,3.56,2.24,6.37,5.28,8.43,9.12,2.06,3.84,3.08,8.18,3.08,13.03s-1.12,9.21-3.36,13.08c-2.24,3.87-5.26,6.92-9.07,9.16-3.81,2.24-8.13,3.36-12.98,3.36Zm0-8.29c3.13,0,5.92-.75,8.38-2.26,2.45-1.5,4.4-3.58,5.85-6.22,1.44-2.64,2.16-5.58,2.16-8.84s-.72-6.26-2.16-8.84c-1.44-2.58-3.39-4.62-5.85-6.12-2.46-1.5-5.25-2.26-8.38-2.26s-5.85.75-8.33,2.26c-2.49,1.5-4.44,3.54-5.85,6.12-1.41,2.58-2.12,5.52-2.12,8.84s.7,6.2,2.12,8.84c1.41,2.64,3.36,4.71,5.85,6.22,2.49,1.5,5.26,2.26,8.33,2.26Z"/>
    <path class="cls-1" d="m401.89,295.39c-4.79,0-9.1-1.12-12.94-3.36-3.84-2.24-6.88-5.29-9.12-9.16-2.24-3.87-3.36-8.23-3.36-13.08s1.03-9.19,3.08-13.03c2.06-3.84,4.86-6.87,8.43-9.12,3.56-2.24,7.58-3.36,12.06-3.36,3.62,0,6.97.75,10.04,2.26,3.07,1.5,5.65,3.54,7.73,6.12v-24.86c0-1.41.44-2.55,1.34-3.41.89-.86,2.01-1.29,3.36-1.29s2.55.43,3.41,1.29c.86.86,1.29,2,1.29,3.41v41.99c0,4.85-1.12,9.21-3.36,13.08-2.24,3.87-5.26,6.92-9.07,9.16-3.81,2.24-8.1,3.36-12.89,3.36Zm0-8.29c3.13,0,5.92-.75,8.38-2.26,2.45-1.5,4.39-3.58,5.8-6.22,1.41-2.64,2.12-5.58,2.12-8.84s-.71-6.26-2.12-8.84c-1.41-2.58-3.35-4.62-5.8-6.12-2.46-1.5-5.25-2.26-8.38-2.26s-5.85.75-8.33,2.26c-2.49,1.5-4.45,3.54-5.89,6.12-1.44,2.58-2.16,5.52-2.16,8.84s.72,6.2,2.16,8.84c1.44,2.64,3.41,4.71,5.89,6.22,2.49,1.5,5.26,2.26,8.33,2.26Z"/>
    <path class="cls-1" d="m467.82,295.48c-4.24,0-8.03-.9-11.37-2.72-3.35-1.81-5.99-4.47-7.92-7.96s-2.9-7.79-2.9-12.89v-22.65c0-1.35.44-2.47,1.33-3.36.89-.89,2.01-1.34,3.36-1.34s2.47.45,3.36,1.34c.89.89,1.34,2.01,1.34,3.36v22.65c0,3.44.64,6.28,1.93,8.52,1.29,2.24,3.04,3.9,5.25,4.97,2.21,1.07,4.7,1.61,7.46,1.61s4.99-.52,7.04-1.57c2.06-1.04,3.7-2.45,4.93-4.24,1.23-1.78,1.84-3.77,1.84-5.98h5.8c0,3.81-.94,7.24-2.81,10.31-1.87,3.07-4.42,5.49-7.64,7.27-3.22,1.78-6.89,2.67-11,2.67Zm20.35-.46c-1.35,0-2.47-.44-3.36-1.33-.89-.89-1.33-2.01-1.33-3.36v-41.07c0-1.41.44-2.55,1.33-3.41.89-.86,2.01-1.29,3.36-1.29s2.55.43,3.41,1.29c.86.86,1.29,2,1.29,3.41v41.07c0,1.35-.43,2.47-1.29,3.36-.86.89-2,1.33-3.41,1.33Z"/>
    <path class="cls-1" d="m524.26,295.02c-2.7,0-5.1-.74-7.18-2.21-2.09-1.47-3.71-3.48-4.88-6.03-1.17-2.55-1.75-5.48-1.75-8.79v-50.27c0-1.35.43-2.45,1.29-3.31.86-.86,1.96-1.29,3.31-1.29s2.45.43,3.31,1.29c.86.86,1.29,1.97,1.29,3.31v50.27c0,2.27.43,4.14,1.29,5.62.86,1.47,1.96,2.21,3.32,2.21h2.3c1.23,0,2.22.43,2.99,1.29.77.86,1.15,1.97,1.15,3.31s-.58,2.46-1.75,3.31c-1.17.86-2.67,1.29-4.51,1.29h-.18Z"/>
    <path class="cls-1" d="m547.46,295.11c-1.35,0-2.47-.44-3.36-1.34-.89-.89-1.33-2.01-1.33-3.36v-40.98c0-1.41.44-2.55,1.33-3.41.89-.86,2.01-1.29,3.36-1.29s2.55.43,3.41,1.29c.86.86,1.29,2,1.29,3.41v40.98c0,1.35-.43,2.47-1.29,3.36-.86.89-2,1.34-3.41,1.34Zm30.75,0c-1.35,0-2.47-.44-3.36-1.34-.89-.89-1.33-2.01-1.33-3.36v-26.33c0-3.87-.95-6.74-2.85-8.61-1.9-1.87-4.39-2.81-7.46-2.81s-5.83,1.1-7.92,3.31c-2.09,2.21-3.13,5.03-3.13,8.47h-5.8c0-3.99.8-7.5,2.39-10.54,1.59-3.04,3.8-5.42,6.63-7.14,2.82-1.72,6.05-2.58,9.67-2.58s6.6.77,9.3,2.3c2.7,1.53,4.8,3.79,6.31,6.77,1.5,2.98,2.26,6.58,2.26,10.82v26.33c0,1.35-.43,2.47-1.29,3.36-.86.89-2,1.34-3.41,1.34Zm30.66,0c-1.35,0-2.47-.44-3.36-1.34-.89-.89-1.34-2.01-1.34-3.36v-26.33c0-3.87-.95-6.74-2.85-8.61-1.9-1.87-4.39-2.81-7.46-2.81s-5.82,1.1-7.87,3.31-3.08,5.03-3.08,8.47h-7.64c0-3.99.86-7.5,2.58-10.54,1.72-3.04,4.13-5.42,7.23-7.14,3.1-1.72,6.64-2.58,10.64-2.58,3.5,0,6.6.77,9.3,2.3,2.7,1.53,4.8,3.79,6.31,6.77,1.5,2.98,2.26,6.58,2.26,10.82v26.33c0,1.35-.43,2.47-1.29,3.36-.86.89-2,1.34-3.41,1.34Z"/>
    <path class="cls-1" d="m653.17,295.48c-4.24,0-8.03-.9-11.37-2.72-3.35-1.81-5.99-4.47-7.92-7.96s-2.9-7.79-2.9-12.89v-22.65c0-1.35.44-2.47,1.33-3.36.89-.89,2.01-1.34,3.36-1.34s2.47.45,3.36,1.34c.89.89,1.34,2.01,1.34,3.36v22.65c0,3.44.64,6.28,1.93,8.52,1.29,2.24,3.04,3.9,5.25,4.97,2.21,1.07,4.7,1.61,7.46,1.61s4.99-.52,7.04-1.57c2.06-1.04,3.7-2.45,4.93-4.24,1.23-1.78,1.84-3.77,1.84-5.98h5.8c0,3.81-.94,7.24-2.81,10.31-1.87,3.07-4.42,5.49-7.64,7.27-3.22,1.78-6.89,2.67-11,2.67Zm20.35-.46c-1.35,0-2.47-.44-3.36-1.33-.89-.89-1.33-2.01-1.33-3.36v-41.07c0-1.41.44-2.55,1.33-3.41.89-.86,2.01-1.29,3.36-1.29s2.55.43,3.41,1.29c.86.86,1.29,2,1.29,3.41v41.07c0,1.35-.43,2.47-1.29,3.36-.86.89-2,1.33-3.41,1.33Z"/>
    <path class="cls-1" d="m703.26,236.46c-1.66,0-3.08-.6-4.28-1.8-1.2-1.2-1.79-2.62-1.79-4.28s.6-3.08,1.79-4.28c1.2-1.2,2.62-1.8,4.28-1.8s3.08.6,4.28,1.8c1.2,1.2,1.8,2.62,1.8,4.28s-.6,3.08-1.8,4.28c-1.2,1.2-2.62,1.8-4.28,1.8Zm0,58.56c-1.35,0-2.47-.44-3.36-1.33-.89-.89-1.33-2.01-1.33-3.36v-40.98c0-1.41.44-2.55,1.33-3.41.89-.86,2.01-1.29,3.36-1.29s2.55.43,3.41,1.29c.86.86,1.29,2,1.29,3.41v40.98c0,1.35-.43,2.47-1.29,3.36-.86.89-2,1.33-3.41,1.33Z"/>
    <path class="cls-1" d="m729.41,253.31c-2.89,0-4.33-1.44-4.33-4.33s1.44-4.33,4.33-4.33h31.4c2.88,0,4.33,1.44,4.33,4.33s-1.44,4.33-4.33,4.33h-31.4Zm.92,41.71c-2.89,0-4.33-1.44-4.33-4.33s1.44-4.33,4.33-4.33h31.4c2.88,0,4.33,1.44,4.33,4.33s-1.44,4.33-4.33,4.33h-31.4Zm2.76-1.75l-6.26-5.52,31.31-41.34,6.17,5.52-31.21,41.34Z"/>
  </g>
  <g>
    <path class="cls-1" d="m283.88,363.36c0,3.22,1.1,4.83,3.29,4.83.34,0,.86-.05,1.55-.16.69-.11,1.2-.16,1.55-.16.56,0,1.04.2,1.45.61.41.41.61.89.61,1.45,0,1.5-.97,2.26-2.9,2.26h-.39c-.22-.04-.37-.06-.45-.06l-3.16-.45c-1.2-.17-2.56-.26-4.06-.26-1.63,0-3.07.09-4.32.26l-3.22.45c-.13,0-.28.02-.45.06h-.45c-1.89,0-2.84-.75-2.84-2.26,0-1.38.69-2.06,2.06-2.06.34,0,.86.05,1.55.16.69.11,1.2.16,1.55.16,2.15,0,3.22-1.61,3.22-4.83v-26.17c0-3.05-1.57-4.58-4.71-4.58h-2c-3.09,0-4.64,1.5-4.64,4.51,0,1.07.02,1.8.06,2.19l.26,2.38c.04.39.06.92.06,1.61,0,2.71-.84,4.06-2.51,4.06s-2.38-.99-2.38-2.96c0-.56.04-1.52.13-2.9.13-2.06.19-3.37.19-3.93,0-1.07-.04-2.19-.11-3.35-.14-2.28-.21-3.24-.21-2.9,0-1.8.81-2.71,2.45-2.71.6,0,1.99.06,4.18.19.21,0,1.97.09,5.28.26h7.33c.86,0,3.15-.04,6.89-.11.81,0,2.21-.06,4.18-.17,1.76-.11,3.13-.17,4.12-.17,2.15,0,3.22.88,3.22,2.64v.13c0,.43-.05,1.22-.16,2.38-.11,1.16-.23,2.41-.35,3.74v.71c0,.64.06,1.65.19,3.03.17,1.8.26,2.92.26,3.35,0,1.76-.84,2.64-2.51,2.64s-2.45-1.08-2.45-3.24c0-.78.06-1.93.19-3.46.13-1.53.19-2.69.19-3.46,0-2.98-1.7-4.47-5.09-4.47h-1.8c-1.59,0-2.73.33-3.42,1-.69.67-1.07,1.77-1.16,3.32l-.26,4.51v21.92Z"/>
    <path class="cls-1" d="m334.47,352.91c0,1.63-.11,2.63-.32,3-.22.37-.84.55-1.87.55h-20.5c-.56,0-.92.08-1.1.23-.17.15-.26.4-.26.74,0,3.22.97,5.91,2.9,8.06,1.93,2.15,4.34,3.22,7.22,3.22,1.89,0,3.62-.52,5.19-1.55,1.57-1.03,2.59-2.34,3.06-3.93l.58-1.87c.3-1.03,1.01-1.55,2.13-1.55,1.59,0,2.38.82,2.38,2.45,0,2.79-1.42,5.28-4.25,7.44s-6.06,3.25-9.67,3.25c-4.51,0-8.1-1.51-10.76-4.54-2.66-3.03-4-7.1-4-12.21s1.42-9.5,4.25-12.76c2.84-3.26,6.53-4.9,11.09-4.9,4.04,0,7.37,1.35,9.99,4.06,2.62,2.71,3.93,6.15,3.93,10.31Zm-23.4-1.68c0,.6.47.9,1.42.9h15.4c.9,0,1.35-.3,1.35-.9,0-2.28-.86-4.25-2.58-5.93-1.72-1.68-3.74-2.51-6.06-2.51s-4.6.87-6.57,2.61c-1.98,1.74-2.96,3.69-2.96,5.83Z"/>
    <path class="cls-1" d="m359.74,350.59c0-1.72,1.07-2.71,3.22-2.97-.22-1.5-.93-2.68-2.16-3.54-1.23-.86-2.8-1.29-4.74-1.29-2.96,0-5.35,1.18-7.15,3.54-1.8,2.36-2.71,5.5-2.71,9.41s.85,7.21,2.55,9.51c1.7,2.3,4.05,3.45,7.06,3.45,1.89,0,3.53-.54,4.93-1.61,1.4-1.07,2.35-2.56,2.87-4.45.43-1.5.69-2.36.77-2.58.47-.86,1.16-1.29,2.06-1.29.73,0,1.33.24,1.8.71.47.47.71,1.07.71,1.8,0,1.07-.34,2.36-1.03,3.87-.69,1.5-1.5,2.75-2.45,3.74-2.54,2.71-5.82,4.06-9.86,4.06-4.38,0-7.92-1.55-10.6-4.64-2.69-3.09-4.03-7.15-4.03-12.18,0-5.33,1.39-9.59,4.16-12.79,2.77-3.2,6.46-4.8,11.05-4.8,3.44,0,6.29.93,8.57,2.8,2.28,1.87,3.42,4.24,3.42,7.12,0,1.59-.44,2.9-1.32,3.93-.88,1.03-2.01,1.55-3.38,1.55-1.07,0-1.97-.32-2.67-.97-.71-.64-1.06-1.44-1.06-2.38Z"/>
    <path class="cls-1" d="m384.81,330.3l-.26,12.56c1.72-1.63,3.3-2.76,4.72-3.38,1.42-.62,3.1-.93,5.04-.93,3.71,0,6.68,1.05,8.92,3.16,2.24,2.11,3.36,4.88,3.36,8.32v10.76c0,2.54.02,3.93.06,4.19.17,2.15.73,3.22,1.68,3.22.34,0,.84-.12,1.48-.36.26-.06.6-.09,1.03-.09,1.59,0,2.38.73,2.38,2.19s-1.03,2.19-3.09,2.19c-.56,0-1.38-.06-2.45-.19-1.8-.21-3.27-.32-4.38-.32s-1.98.04-2.58.13c-1.8.26-2.92.39-3.35.39-.77,0-1.42-.23-1.93-.68s-.77-1.02-.77-1.71c0-.56.23-1.03.68-1.42s.98-.58,1.58-.58c.47,0,1.03.11,1.68.32.39.13.75.19,1.1.19,1.29,0,1.95-1.4,2-4.19,0-.52.04-1.52.13-3.03v-6.25c0-4.38-.43-7.33-1.29-8.83-1.25-2.23-3.45-3.35-6.6-3.35-3.41,0-5.89,1.16-7.44,3.48-1.08,1.59-1.64,4.15-1.68,7.67v4.64c0,.26-.09.69-.26,1.29v1.22c0,2.45.02,3.87.07,4.25.22,2.11.86,3.16,1.92,3.16.35,0,.85-.1,1.49-.29s1.11-.29,1.43-.29c1.41,0,2.12.69,2.12,2.06,0,1.55-.95,2.32-2.85,2.32-.61,0-1.52-.06-2.73-.19-1.65-.17-3.05-.26-4.22-.26-.73,0-1.75.06-3.05.19-1.73.17-2.83.26-3.31.26-1.77,0-2.66-.8-2.66-2.39,0-1.33.83-1.99,2.49-1.99.57,0,.98.06,1.25.18.74.18,1.27.27,1.58.27.7,0,1.17-.65,1.41-1.97.24-1.31.38-3.99.43-8.02v-11.54c0-6.45-.13-10.52-.39-12.21-.26-1.7-.86-2.55-1.8-2.55-.3,0-.75.06-1.35.19-.6.13-1.07.19-1.42.19-1.46,0-2.19-.69-2.19-2.06,0-.6.26-1.12.77-1.55s1.14-.64,1.87-.64c.21,0,.94.06,2.19.19.82.09,1.7.13,2.64.13.39,0,.92-.05,1.61-.16.69-.11,1.18-.16,1.48-.16.99,0,1.48.71,1.48,2.14v.13Z"/>
    <path class="cls-1" d="m462.48,335.19c0,4.77-3.09,8.75-9.28,11.92l.71,1.16c1.16,1.93,3.22,5.01,6.19,9.22l.71.9.39-1.1,2.51-6.64c3.01-7.91,7.28-11.86,12.83-11.86,2.58,0,4.66.74,6.25,2.22s2.39,3.43,2.39,5.83c0,2.28-.75,4.2-2.26,5.77s-3.37,2.35-5.61,2.35c-1.63,0-2.96-.41-4-1.22s-1.55-1.89-1.55-3.22c0-2.06.9-3.09,2.71-3.09,1.55,0,2.32.71,2.32,2.13,0,.17-.11.52-.32,1.03.6.09.95.13,1.03.13.82,0,1.53-.34,2.13-1.03.6-.69.9-1.52.9-2.51,0-1.25-.4-2.24-1.19-3-.79-.75-1.88-1.13-3.25-1.13-2.23,0-4.06,1.23-5.48,3.68-1.16,1.98-2.58,5.28-4.25,9.89-.9,2.5-1.74,4.44-2.51,5.82,1.85,2.07,3.39,3.45,4.64,4.14,1.25.69,2.81,1.03,4.71,1.03.39,0,.96-.05,1.71-.16.75-.11,1.32-.16,1.71-.16,1.76,0,2.64.8,2.64,2.38,0,1.5-.9,2.26-2.71,2.26h-6.25c-2.96,0-6.12-1.76-9.47-5.29-1.16,1.33-2.15,2.28-2.96,2.84-2.67,1.85-5.74,2.77-9.22,2.77-3.91,0-7.11-1.18-9.6-3.54-2.49-2.36-3.74-5.41-3.74-9.15,0-5.03,2.1-8.87,6.32-11.54,1.42-.9,2.73-1.65,3.93-2.26l.77-.39c-2.28-4.12-3.42-7.43-3.42-9.93s.89-4.66,2.67-6.25,4.14-2.38,7.06-2.38,5.46.75,7.22,2.26c1.76,1.5,2.64,3.54,2.64,6.12Zm-11.41,18.64c-1.03-1.59-1.96-3.1-2.77-4.53-1.63.78-2.96,1.62-4,2.52-2.36,2.03-3.54,4.59-3.54,7.7,0,2.42.76,4.37,2.29,5.85,1.52,1.49,3.51,2.23,5.96,2.23,3.65,0,6.6-1.49,8.83-4.46-2.88-3.71-5.14-6.81-6.77-9.31Zm-2.9-18.64c0,1.63.95,4.32,2.84,8.06,4.17-1.98,6.25-4.51,6.25-7.61,0-1.38-.42-2.48-1.26-3.32s-1.97-1.26-3.38-1.26c-1.33,0-2.41.38-3.22,1.13-.82.75-1.22,1.75-1.22,3Z"/>
    <path class="cls-1" d="m514.95,337.44c0-3.22-1.1-4.83-3.29-4.83-.39,0-.84.04-1.35.13-.77.13-1.35.19-1.74.19-1.33,0-2-.69-2-2.06,0-1.5.97-2.26,2.9-2.26.21,0,.49.02.84.06l3.42.45c1.29.17,2.66.26,4.12.26,1.2,0,2.41-.06,3.61-.19l4.19-.45c.82-.09,1.89-.13,3.22-.13,3.91,0,7.18.56,9.8,1.68,3.44,1.46,6.16,4,8.15,7.61s3,7.8,3,12.57c0,4.21-.8,8-2.38,11.38-1.59,3.37-3.76,5.86-6.51,7.44-3.31,1.93-7.3,2.9-11.99,2.9-.95,0-1.91-.04-2.9-.13l-4.45-.39c-1.5-.13-3.07-.19-4.71-.19-1.42,0-2.58.06-3.48.19l-3.09.45c-.09,0-.24.02-.45.06h-.52c-1.85,0-2.77-.75-2.77-2.26,0-.6.19-1.11.58-1.51.39-.41.86-.61,1.42-.61.47,0,1.05.06,1.74.19.3.09.75.13,1.35.13,2.19,0,3.29-1.61,3.29-4.83v-25.85Zm5.41-.66v27.16c0,1.97.97,3.17,2.9,3.6.64.17,2.45.26,5.41.26,5.16,0,8.89-1.39,11.21-4.17,2.79-3.34,4.19-7.75,4.19-13.23,0-4.28-.85-7.91-2.55-10.89-1.7-2.97-4.03-4.89-6.99-5.75-1.89-.56-4.17-.83-6.83-.83-3.39,0-5.47.19-6.22.58-.75.39-1.13,1.48-1.13,3.28Z"/>
    <path class="cls-1" d="m585.72,352.91c0,1.63-.11,2.63-.32,3-.22.37-.84.55-1.87.55h-20.5c-.56,0-.92.08-1.1.23-.17.15-.26.4-.26.74,0,3.22.97,5.91,2.9,8.06,1.93,2.15,4.34,3.22,7.22,3.22,1.89,0,3.62-.52,5.19-1.55,1.57-1.03,2.59-2.34,3.06-3.93l.58-1.87c.3-1.03,1.01-1.55,2.13-1.55,1.59,0,2.38.82,2.38,2.45,0,2.79-1.42,5.28-4.25,7.44s-6.06,3.25-9.67,3.25c-4.51,0-8.1-1.51-10.76-4.54-2.67-3.03-4-7.1-4-12.21s1.42-9.5,4.25-12.76c2.84-3.26,6.53-4.9,11.09-4.9,4.04,0,7.37,1.35,9.99,4.06,2.62,2.71,3.93,6.15,3.93,10.31Zm-23.4-1.68c0,.6.47.9,1.42.9h15.41c.9,0,1.35-.3,1.35-.9,0-2.28-.86-4.25-2.58-5.93-1.72-1.68-3.74-2.51-6.06-2.51s-4.6.87-6.57,2.61-2.96,3.69-2.96,5.83Z"/>
    <path class="cls-1" d="m605.79,338.54c2.87,0,5.27.75,7.2,2.26v-.26c0-1.59.69-2.38,2.06-2.38s2.13.69,2.13,2.06c0,.26-.04.9-.11,1.93-.14.86-.21,1.72-.21,2.58,0,.52.05,1.27.16,2.26.11.99.16,1.74.16,2.26,0,1.63-.7,2.45-2.09,2.45s-2.05-.69-2.09-2.06v-2.13c-.04-1.29-.79-2.39-2.22-3.32-1.44-.92-3.13-1.39-5.06-1.39s-3.63.51-4.96,1.51c-1.33,1.01-2,2.27-2,3.77,0,2.75,1.89,4.38,5.67,4.9l3.74.52c7.3.99,10.96,4.02,10.96,9.09,0,3.09-1.18,5.6-3.54,7.51s-5.44,2.87-9.25,2.87c-3.56,0-6.64-1.01-9.25-3.03v1.22c0,1.55-.73,2.32-2.19,2.32-1.59,0-2.38-.88-2.38-2.64,0,.3.13-.82.39-3.35.09-.6.13-1.2.13-1.8,0-1.03-.09-2-.26-2.9-.17-.9-.26-1.61-.26-2.13,0-1.5.69-2.26,2.06-2.26.9,0,1.47.21,1.71.64.24.43.38,1.57.42,3.42.04,1.85,1.01,3.35,2.9,4.51,1.89,1.16,4.3,1.74,7.22,1.74,2.11,0,3.85-.54,5.22-1.61,1.37-1.07,2.06-2.43,2.06-4.06,0-2.92-2.32-4.62-6.96-5.09-4.43-.47-7.8-1.34-10.12-2.61s-3.48-3.49-3.48-6.67c0-3.01,1.13-5.45,3.41-7.32,2.27-1.87,5.22-2.8,8.87-2.8Z"/>
    <path class="cls-1" d="m636.12,353.17v8.38c0,2.15.02,3.42.06,3.8.21,1.93.79,2.9,1.74,2.9.21,0,.75-.11,1.61-.32.21-.09.54-.13.97-.13,1.63,0,2.45.71,2.45,2.13,0,.6-.27,1.12-.81,1.55s-1.22.64-2.04.64c-.69,0-1.74-.1-3.14-.29s-2.45-.29-3.14-.29c-1.12,0-2.37.09-3.75.26-1.68.21-2.8.32-3.36.32-1.73,0-2.59-.73-2.59-2.19s.74-2.13,2.21-2.13c.35,0,.86.06,1.53.19s1.18.19,1.53.19c1.04,0,1.67-1.38,1.89-4.12v-16.5c-.22-2.71-.87-4.06-1.95-4.06-.35,0-.84.08-1.46.23-.63.15-1.09.23-1.4.23-1.56,0-2.34-.69-2.34-2.06,0-1.46.95-2.19,2.84-2.19.82,0,1.4.02,1.74.06,1.38.17,2.26.26,2.64.26.34,0,.87-.05,1.58-.16.71-.11,1.23-.16,1.58-.16,1.25,0,1.87.84,1.87,2.51,0,.17-.02.43-.05.77-.03.34-.05.6-.05.77-.04.34-.07,1.68-.1,4-.03,1.76-.05,3.57-.05,5.42Zm-3.35-16.89c-.99,0-1.84-.35-2.55-1.06-.71-.71-1.06-1.56-1.06-2.55s.35-1.83,1.06-2.51c.71-.69,1.56-1.03,2.55-1.03s1.84.34,2.55,1.03,1.06,1.53,1.06,2.51-.35,1.84-1.06,2.55-1.56,1.06-2.55,1.06Z"/>
    <path class="cls-1" d="m662.68,338.54c1.12,0,2.38.17,3.8.52.21-4.21,2.66-6.32,7.35-6.32,1.98,0,3.63.52,4.96,1.55,1.33,1.03,2,2.34,2,3.93,0,1.03-.33,1.91-1,2.64-.67.73-1.45,1.1-2.35,1.1-.69,0-1.29-.24-1.8-.71-.52-.47-.77-1.03-.77-1.68,0-.69.47-1.4,1.42-2.13-.69-.86-1.57-1.29-2.64-1.29-2.28,0-3.44,1.42-3.48,4.25,3.26,2.19,4.9,5.14,4.9,8.83,0,2.97-1.12,5.44-3.36,7.41-2.24,1.98-5.04,2.96-8.4,2.96-2.37,0-4.83-.56-7.37-1.68-.69-.3-1.27-.45-1.75-.45-.6,0-1.14.27-1.62.81-.47.54-.71,1.17-.71,1.9,0,2.23,2.26,3.35,6.78,3.35h2.33c4.09,0,7.41.39,9.95,1.16,2.37.73,4.24,1.86,5.62,3.41,1.38,1.54,2.07,3.28,2.07,5.2,0,3.13-1.45,5.6-4.35,7.42-2.9,1.82-6.82,2.73-11.76,2.73s-8.82-.86-11.63-2.58c-2.81-1.72-4.22-4.08-4.22-7.09,0-3.48,1.96-5.95,5.87-7.41-3.52-1.38-5.29-3.44-5.29-6.19,0-3.01,1.76-5.07,5.29-6.19-1.12-1.5-1.68-3.27-1.68-5.29,0-2.92,1.13-5.35,3.38-7.28s5.08-2.9,8.48-2.9Zm.26,29.26c-3.44,0-6.15.52-8.12,1.55-1.98,1.03-2.96,2.43-2.96,4.19s.97,3.15,2.9,4.16,4.53,1.51,7.8,1.51c3.44,0,6.16-.52,8.15-1.55s3-2.41,3-4.12c0-1.8-.95-3.21-2.84-4.22-1.89-1.01-4.53-1.51-7.93-1.51Zm-.06-25.01c-1.89,0-3.5.56-4.83,1.68-1.33,1.12-2.06,2.51-2.19,4.19v.39c0,1.89.64,3.42,1.93,4.58s2.96,1.74,5.03,1.74,3.9-.58,5.25-1.74c1.35-1.16,2.03-2.64,2.03-4.45s-.69-3.37-2.06-4.58c-1.38-1.2-3.09-1.8-5.16-1.8Z"/>
    <path class="cls-1" d="m694.2,341.6v1.84c2.58-3.26,6.02-4.9,10.31-4.9,2.32,0,4.51.59,6.57,1.77,2.06,1.18,3.46,2.65,4.19,4.42.6,1.46.9,3.37.9,5.74v12.25c0,1.85.02,2.94.06,3.29.21,1.46.79,2.19,1.74,2.19.39,0,.89-.05,1.52-.16.62-.11,1.06-.16,1.32-.16.56,0,1.04.19,1.45.58.41.39.61.86.61,1.42,0,.64-.26,1.18-.77,1.61s-1.14.64-1.87.64c-.6,0-1.59-.09-2.97-.26s-2.66-.26-3.87-.26c-1.12,0-2.04.04-2.77.13-2.15.26-3.29.39-3.42.39-1.72,0-2.58-.75-2.58-2.26,0-1.33.74-2,2.23-2,.35,0,.75.04,1.18.13.83.17,1.36.26,1.58.26,1.05,0,1.62-1.18,1.71-3.54v-12.12c0-2.28-.11-3.85-.32-4.71-.39-1.63-1.22-2.9-2.5-3.8-1.41-.99-3.02-1.48-4.82-1.48-3.42,0-5.89,1.22-7.38,3.67-1.03,1.68-1.54,4.53-1.54,8.57v8.57c0,1.89.13,3.18.39,3.87.26.69.73,1.03,1.42,1.03.34,0,.82-.07,1.42-.23.6-.15,1.1-.23,1.48-.23,1.33,0,2,.72,2,2.16s-.86,2.09-2.58,2.09c-.34,0-1.46-.13-3.35-.39-.95-.13-2-.19-3.16-.19-.9,0-2.11.09-3.61.26-1.89.21-2.96.32-3.22.32-1.8,0-2.71-.73-2.71-2.19,0-1.38.7-2.06,2.1-2.06.22,0,.62.06,1.21.19s1.17.19,1.74.19c1.31,0,1.99-1.25,2.04-3.74v-17.21c-.09-1.46-.27-2.46-.56-3-.29-.54-.78-.81-1.48-.81-.31,0-.75.05-1.34.16-.59.11-1.04.16-1.35.16-1.58,0-2.36-.69-2.36-2.06s.97-2.13,2.9-2.13c.26,0,.47.02.64.06l2.38.26c.69,0,1.29-.05,1.81-.16,1.12-.11,1.7-.16,1.74-.16,1.25,0,1.87.66,1.87,1.97Z"/>
  </g>
</svg>